<svg xmlns="http://www.w3.org/2000/svg" viewBox="0 0 32 32">
  <circle cx="16" cy="16" r="16" fill="#000"/>
  <defs>
    <linearGradient id="sol-grad" x1="0%" y1="0%" x2="100%" y2="100%">
      <stop offset="0%" style="stop-color:#00FFA3"/>
      <stop offset="100%" style="stop-color:#DC1FFF"/>
    </linearGradient>
  </defs>
  <path fill="url(#sol-grad)" d="M9.5 19.8c.1-.1.3-.2.5-.2h13.4c.3 0 .5.4.3.6l-2.2 2.2c-.1.1-.3.2-.5.2H7.6c-.3 0-.5-.4-.3-.6l2.2-2.2zm0-10.4c.1-.1.3-.2.5-.2h13.4c.3 0 .5.4.3.6l-2.2 2.2c-.1.1-.3.2-.5.2H7.6c-.3 0-.5-.4-.3-.6l2.2-2.2zm12.5 5.2c-.1-.1-.3-.2-.5-.2H8.1c-.3 0-.5.4-.3.6l2.2 2.2c.1.1.3.2.5.2h13.4c.3 0 .5-.4.3-.6l-2.2-2.2z"/>
</svg>
